<svg width="48" height="48" viewBox="0 0 48 48" fill="none" xmlns="http://www.w3.org/2000/svg">
<rect width="48" height="48" rx="8.83333" fill="#FFDE21"/>
<path d="M39.1989 16.409L34.3479 16.409C34.3479 16.409 30.2761 16.3842 29.2656 16.4189V20.913L34.9791 20.9279C34.9791 20.9279 34.9562 21.4337 34.7446 22.1143C33.3907 26.4694 28.6564 29.663 24.1075 29.6697C19.4843 29.6779 15.91 26.4882 14.5181 22.0701C14.1565 20.9197 13.922 17.5782 13.922 16.409H9.60045C9.5971 16.6467 9.64552 19.0889 9.65543 19.3505C9.73638 21.4838 10.2638 23.5762 11.2035 25.4919C12.1433 27.4076 13.4742 29.1039 15.1101 30.4706C16.746 31.8373 18.6503 32.8439 20.6993 33.4251C22.7483 34.0063 24.1496 34.1492 26.2572 33.8443C33.6131 32.8197 39.3013 26.2167 39.1989 18.8042V16.409Z" fill="black"/>
</svg>
